<svg xmlns="http://www.w3.org/2000/svg" xmlns:xlink="http://www.w3.org/1999/xlink" width="200" height="200" viewBox="0 0 200 200"><defs><clipPath id="a"><rect width="200" height="200" fill="#fff"/></clipPath><clipPath id="c"><rect width="200" height="200"/></clipPath></defs><g id="b" clip-path="url(#c)"><g transform="translate(0 200) rotate(-90)" clip-path="url(#a)"><path d="M172.327,126.123l-19.01-18.51a3.329,3.329,0,0,0-4.66.007l-31.99,31.367V3.333A3.335,3.335,0,0,0,113.333,0H86.666a3.335,3.335,0,0,0-3.333,3.333V138.987L51.343,107.62a3.331,3.331,0,0,0-4.657-.007l-19.01,18.51a3.325,3.325,0,0,0,0,4.773l70,68.157a3.329,3.329,0,0,0,4.65,0l70-68.157a3.333,3.333,0,0,0,0-4.773Z" fill="#131824"/></g></g></svg>