<svg xmlns="http://www.w3.org/2000/svg" xmlns:xlink="http://www.w3.org/1999/xlink" width="500" height="500" viewBox="0 0 500 500"><defs><clipPath id="a"><rect width="500" height="500" fill="#ffed00"/></clipPath><clipPath id="c"><rect width="500" height="500"/></clipPath></defs><g id="b" clip-path="url(#c)"><rect width="500" height="500" fill="#fff"/><g clip-path="url(#a)"><rect width="500" height="500" fill="#fff"/><g transform="translate(500.004 3.654) rotate(90)"><path d="M484.14,226.886,306.46,49.2a27.006,27.006,0,0,0-38.084,0L252.244,65.338a26.728,26.728,0,0,0-7.86,19.04,27.255,27.255,0,0,0,7.86,19.264L355.9,207.526H26.58A26.277,26.277,0,0,0,0,234v22.812c0,14.852,11.732,27.648,26.58,27.648h330.5L252.248,388.926a26.668,26.668,0,0,0,0,37.812l16.132,16.084a27.011,27.011,0,0,0,38.084-.036l177.68-177.68a27.156,27.156,0,0,0,0-38.22Z" fill="#ffed00"/></g></g></g></svg>